<svg width="67" height="46" viewBox="0 0 67 46" fill="none" xmlns="http://www.w3.org/2000/svg">
<path d="M13.4938 28.4235C14.1952 28.4235 14.8344 28.328 15.4072 28.1039C15.98 27.9129 16.4905 27.5933 16.9388 27.1741C17.3871 26.759 17.7357 26.2112 17.9931 25.572C18.2463 24.9327 18.4082 24.1607 18.4704 23.2642H11.3562V21.7907H18.4704C18.4082 20.9274 18.2463 20.1553 17.9931 19.5493C17.7357 18.9101 17.3871 18.3955 16.972 17.9804C16.557 17.5653 16.0796 17.2416 15.5027 17.0507C14.959 16.8597 14.353 16.7643 13.7179 16.7643C12.8587 16.7643 12.0286 16.9261 11.2607 17.2457C10.4638 17.5653 9.72912 18.0468 8.99446 18.7524L8.03566 17.5653C8.73712 16.8597 9.62951 16.316 10.6506 15.8968C11.6716 15.4817 12.755 15.2866 13.9047 15.2866C15.0544 15.2866 16.0755 15.4485 16.9969 15.7681C17.9225 16.0877 18.7194 16.536 19.3877 17.1793C20.056 17.7895 20.5665 18.5573 20.9193 19.4871C21.2721 20.3836 21.463 21.442 21.463 22.6291C21.463 23.8162 21.2721 24.8746 20.9193 25.7712C20.5665 26.6677 20.0269 27.4397 19.3545 28.0789C18.6862 28.6891 17.8561 29.1664 16.9305 29.4902C15.9717 29.8098 14.9216 29.9716 13.7387 29.9716C12.5557 29.9716 11.5056 29.7807 10.4845 29.3615C9.46348 28.9464 8.6043 28.3985 7.86963 27.6929L8.82843 26.5058C9.52989 27.2115 10.2936 27.722 11.0947 28.0125C11.8294 28.2699 12.6263 28.4276 13.4855 28.4276" fill="#F36E3C"/>
<path d="M33.2385 27.5271H33.4336L38.3438 15.6396H42.3948V29.5153H39.6845V18.4289H39.4935L34.961 29.5153H31.7401L27.2117 18.4289H27.0208V29.5153H24.2772V15.6396H28.3283L33.2385 27.5271Z" fill="#F36E3C"/>
<path d="M54.137 22.4633L59.1427 29.5153H56.0173L51.6798 23.364H48.3593V29.5153H45.6157V15.6396H48.3593V21.8864H51.4889L55.8263 15.6396H58.8563L54.137 22.4633Z" fill="#F36E3C"/>
<path d="M62.2391 31.9186C59.9729 34.6414 56.9761 36.6628 53.8174 38.2317C50.6588 39.8339 47.2469 40.8591 43.7687 41.5647C40.3859 42.2703 36.9409 42.5567 33.4958 42.5567C30.0508 42.5567 26.6057 42.2371 23.2229 41.5647C19.7447 40.8591 16.3328 39.8339 13.1742 38.2317C10.0155 36.6628 7.01876 34.6082 4.7525 31.9186C3.28317 30.1545 2.13759 28.1041 1.49839 25.8918C0.859186 23.7459 0.859186 21.4382 1.49839 19.2881C2.13759 17.0758 3.28317 15.0254 4.7525 13.2655C7.01876 10.5427 10.0155 8.5213 13.1742 6.95235C16.3328 5.3834 19.7779 4.32499 23.2229 3.61937C26.6057 2.91376 30.0508 2.62737 33.4958 2.62737C36.9409 2.62737 40.3859 2.94697 43.7687 3.61937C47.2469 4.32499 50.6588 5.3502 53.8174 6.95235C56.9761 8.5213 59.9729 10.5717 62.2391 13.2655C63.7085 15.0295 64.854 17.08 65.4932 19.2881C66.1324 21.434 66.1324 23.7418 65.4932 25.8918C64.854 28.0709 63.7085 30.1545 62.2391 31.9186ZM63.1938 12.4644C60.8985 9.48425 57.8643 7.17649 54.6434 5.3502C48.2016 1.73082 40.8342 0.19093 33.4958 0C26.1907 0.19093 18.79 1.73082 12.3441 5.3502C9.12315 7.17649 6.09317 9.48425 3.7937 12.4644C1.53159 15.3201 0.0622599 18.8772 0 22.592C0.0622599 26.2778 1.53159 29.8349 3.79785 32.7196C6.09317 35.6998 9.12315 38.0076 12.3482 39.8339C18.7942 43.4574 26.1616 44.9931 33.5 45.1841C40.8383 44.9931 48.2057 43.4532 54.6517 39.8339C57.8726 38.0076 60.9026 35.6998 63.2021 32.7196C65.4683 29.8681 66.9335 26.2778 66.9999 22.592C66.9377 18.873 65.4351 15.3159 63.2021 12.4644" fill="#F36E3C"/>
</svg>
