<svg width="52" height="63" viewBox="0 0 52 63" fill="none" xmlns="http://www.w3.org/2000/svg">
<path d="M41.8506 0C47.0697 0 51.3009 4.23201 51.3008 9.45117L51.2998 52.6514C51.2993 57.8701 47.0684 62.1006 41.8496 62.1006H9.4502C4.23126 62.1006 0.000230281 57.8693 0 52.6504V9.45117C3.36168e-05 4.23214 4.23116 4.45821e-05 9.4502 0H41.8506ZM9.4502 4.50098C6.71644 4.50102 4.50002 6.7174 4.5 9.45117V52.6504C4.50025 55.384 6.71654 57.6006 9.4502 57.6006H41.8506C44.5839 57.6003 46.7993 55.3846 46.7998 52.6514L46.8008 9.45117C46.8008 6.71733 44.5844 4.50098 41.8506 4.50098H9.4502ZM30.3125 14.4014C34.4495 14.4016 37.8027 17.7555 37.8027 21.8926V35.8682C37.8025 42.5782 32.3634 48.0185 25.6533 48.0186C18.9432 48.0186 13.5032 42.5782 13.5029 35.8682V24.8037C13.503 23.5613 14.5105 22.5539 15.7529 22.5537C16.9955 22.5537 18.0028 23.5612 18.0029 24.8037V35.8682C18.0032 40.0929 21.4285 43.5186 25.6533 43.5186C29.8781 43.5185 33.3025 40.0929 33.3027 35.8682V21.8926C33.3027 20.2408 31.9643 18.9016 30.3125 18.9014C28.6605 18.9014 27.3213 20.2406 27.3213 21.8926V35.2861C27.321 36.5284 26.3136 37.5359 25.0713 37.5361C23.8288 37.5361 22.8216 36.5285 22.8213 35.2861V21.8926C22.8213 17.7553 26.1752 14.4014 30.3125 14.4014Z" fill="currentColor"/>
</svg>
