<svg width="20" height="21" viewBox="0 0 20 21" fill="none" xmlns="http://www.w3.org/2000/svg">
<path d="M13.9502 0C15.6899 0 17.1006 1.41069 17.1006 3.15039V9.75C17.1004 10.164 16.7646 10.4999 16.3506 10.5C15.9365 10.5 15.6008 10.164 15.6006 9.75V3.15039C15.6006 2.23912 14.8615 1.5 13.9502 1.5H3.15039C2.23913 1.5 1.50001 2.23912 1.5 3.15039V17.5498C1.50019 18.4609 2.23924 19.2002 3.15039 19.2002H7.9502C8.36432 19.2003 8.7002 19.536 8.7002 19.9502C8.69986 20.3641 8.36411 20.7001 7.9502 20.7002H3.15039C1.41081 20.7002 0.000186751 19.2893 0 17.5498V3.15039C1.12057e-05 1.4107 1.4107 0 3.15039 0H13.9502ZM14.9443 12C15.3585 12.0001 15.6943 12.3359 15.6943 12.75V15.3945H18.3379C18.7521 15.3945 19.0879 15.7303 19.0879 16.1445C19.0875 16.5584 18.7518 16.8945 18.3379 16.8945H15.6943V19.5381C15.6941 19.9521 15.3583 20.288 14.9443 20.2881C14.5302 20.2881 14.1945 19.9521 14.1943 19.5381V16.8945H11.5498C11.1359 16.8944 10.8002 16.5583 10.7998 16.1445C10.7998 15.7304 11.1357 15.3946 11.5498 15.3945H14.1943V12.75C14.1943 12.3358 14.5301 12 14.9443 12ZM10.0967 3.89355C11.4756 3.89355 12.5935 5.01172 12.5938 6.39062V11.0498C12.5936 13.2864 10.7806 15.0996 8.54395 15.0996C6.30737 15.0995 4.49434 13.2863 4.49414 11.0498V7.36133H5.99414V11.0498C5.99434 12.4579 7.1358 13.5995 8.54395 13.5996C9.95215 13.5996 11.0936 12.458 11.0938 11.0498V6.39062C11.0935 5.84015 10.6472 5.39355 10.0967 5.39355C9.54631 5.39373 9.09983 5.84026 9.09961 6.39062V10.8555H7.59961V6.39062C7.59983 5.01183 8.71788 3.89373 10.0967 3.89355Z" fill="currentColor"/>
</svg>
