<svg width="14" height="14" viewBox="0 0 14 14" fill="none" xmlns="http://www.w3.org/2000/svg">
<path fill-rule="evenodd" clip-rule="evenodd" d="M12.2197 0.21967C12.5126 -0.0732214 12.9873 -0.0732218 13.2802 0.21967C13.5731 0.512567 13.5731 0.987342 13.2802 1.28022L7.81049 6.74994L13.2802 12.2197C13.5731 12.5126 13.5731 12.9873 13.2802 13.2802C12.9873 13.5731 12.5126 13.5731 12.2197 13.2802L6.74994 7.81049L1.28022 13.2802C0.987342 13.5731 0.512567 13.5731 0.21967 13.2802C-0.0732234 12.9873 -0.0732232 12.5126 0.21967 12.2197L5.6894 6.74994L0.21967 1.28022C-0.073223 0.987324 -0.073223 0.512563 0.21967 0.21967C0.512563 -0.0732234 0.987323 -0.0732231 1.28022 0.21967L6.74994 5.6894L12.2197 0.21967Z" fill="currentColor"/>
</svg>
