<svg width="24" height="24" viewBox="0 0 24 24" fill="none" xmlns="http://www.w3.org/2000/svg">
<path d="M18 15.25C18.4142 15.25 18.75 15.5858 18.75 16V17.3604C18.75 17.9735 18.528 18.5743 18.1143 19.0264C17.6985 19.4807 17.1193 19.75 16.5 19.75H7.5C6.88071 19.75 6.30151 19.4807 5.88574 19.0264C5.47205 18.5743 5.25 17.9735 5.25 17.3604V16C5.25 15.5858 5.58579 15.25 6 15.25C6.41421 15.25 6.75 15.5858 6.75 16V17.3604C6.75 17.6165 6.8434 17.851 6.99219 18.0137C7.13903 18.1741 7.32364 18.25 7.5 18.25H16.5C16.6764 18.25 16.861 18.1741 17.0078 18.0137C17.1566 17.851 17.25 17.6165 17.25 17.3604V16C17.25 15.5858 17.5858 15.25 18 15.25ZM12.001 4.25C12.4151 4.25008 12.751 4.58583 12.751 5V12.4316L14.8896 10.2188C15.1774 9.92087 15.6523 9.91248 15.9502 10.2002C16.2481 10.488 16.2565 10.9628 15.9688 11.2607L12.54 14.8096C12.3988 14.9558 12.2043 15.039 12.001 15.0391C11.7976 15.0391 11.6023 14.9559 11.4609 14.8096L8.0332 11.2607C7.7455 10.9629 7.75315 10.488 8.05078 10.2002C8.34869 9.91241 8.82354 9.92084 9.11133 10.2188L11.251 12.4326V5C11.251 4.58579 11.5868 4.25 12.001 4.25Z" fill="#6B778C"/>
</svg>
