
<svg width="24" height="24" viewBox="0 0 24 24" fill="none" xmlns="http://www.w3.org/2000/svg">
<path d="M15.6689 1.65039C16.2188 1.65039 16.7356 1.88134 17.1055 2.27051C17.4507 2.63377 17.9886 3.18404 18.5 3.6416C18.9427 4.03774 19.6194 4.72981 20.0098 5.13477C20.3596 5.49778 20.5498 5.98088 20.5498 6.47852L20.5488 19.2002C20.5486 20.9396 19.1389 22.3505 17.3994 22.3506H6.59961C4.86003 22.3506 3.44941 20.9397 3.44922 19.2002V4.80078C3.44923 3.06109 4.85992 1.65039 6.59961 1.65039H15.6689ZM6.59961 3.15039C5.68834 3.15039 4.94922 3.88951 4.94922 4.80078V19.2002C4.94941 20.1113 5.68846 20.8506 6.59961 20.8506H17.3994C18.3105 20.8505 19.0486 20.1112 19.0488 19.2002L19.0498 7.9502H16.1992C15.1226 7.94999 14.2502 7.07666 14.25 6V3.15039H6.59961ZM15.75 6C15.7502 6.24823 15.951 6.44999 16.1992 6.4502H19.0469C19.0404 6.34517 18.9993 6.24812 18.9297 6.17578C18.5327 5.76395 17.8935 5.11273 17.499 4.75977C16.9425 4.2618 16.3721 3.67762 16.0176 3.30469C15.9425 3.22565 15.8481 3.17598 15.75 3.1582V6Z" fill="currentColor"/>
</svg>
