<svg width="24" height="24" viewBox="0 0 24 24" fill="none" xmlns="http://www.w3.org/2000/svg">
<path d="M12.5293 2.84961C13.2877 2.84961 14.0164 3.14895 14.5547 3.68262C15.0929 4.21641 15.3973 4.94165 15.3975 5.69922V7.7998C15.3974 8.21379 15.0614 8.54959 14.6475 8.5498C14.2333 8.5498 13.8976 8.21393 13.8975 7.7998V5.69922C13.8973 5.34352 13.7546 5.00055 13.499 4.74707C13.243 4.49331 12.8939 4.34961 12.5293 4.34961H5.11719C4.75276 4.34973 4.40431 4.49349 4.14844 4.74707C3.89282 5.00056 3.7502 5.34348 3.75 5.69922V18.2998C3.75005 18.6557 3.8928 18.9984 4.14844 19.252C4.40434 19.5057 4.75263 19.6493 5.11719 19.6494H12.5293C12.894 19.6494 13.243 19.5058 13.499 19.252C13.7545 18.9984 13.8974 18.6556 13.8975 18.2998V16.1992C13.8979 15.7854 14.2335 15.4492 14.6475 15.4492C15.0612 15.4494 15.3971 15.7855 15.3975 16.1992V18.2998C15.3974 19.0576 15.093 19.7835 14.5547 20.3174C14.0165 20.851 13.2877 21.1494 12.5293 21.1494H5.11719C4.35882 21.1493 3.62995 20.851 3.0918 20.3174C2.5535 19.7835 2.25005 19.0575 2.25 18.2998V5.69922C2.2502 4.94178 2.55376 4.21639 3.0918 3.68262C3.62993 3.14906 4.35891 2.84973 5.11719 2.84961H12.5293ZM17.291 8.32129C17.5826 8.02754 18.0575 8.026 18.3516 8.31738L21.5283 11.4668C21.6702 11.6075 21.7499 11.8001 21.75 12C21.7499 12.1997 21.6701 12.3915 21.5283 12.5322L18.3516 15.6826C18.0574 15.974 17.5826 15.9717 17.291 15.6777C16.9995 15.3836 17.0018 14.9088 17.2959 14.6172L19.1777 12.75H8.29395C7.87994 12.7499 7.54416 12.414 7.54395 12C7.54414 11.586 7.87993 11.2501 8.29395 11.25H19.1787L17.2959 9.38184C17.002 9.09016 16.9994 8.61534 17.291 8.32129Z" fill="#6B778C"/>
</svg>
