
<svg width="16" height="16" viewBox="0 0 16 16" fill="none" xmlns="http://www.w3.org/2000/svg">
<path d="M7.9502 0C8.36424 0.000104845 8.70006 0.335963 8.7002 0.75V7.2002H15.1504C15.5643 7.20041 15.9003 7.53622 15.9004 7.9502C15.9003 8.36419 15.5644 8.69998 15.1504 8.7002H8.7002V15.1504C8.69998 15.5644 8.36419 15.9003 7.9502 15.9004C7.53611 15.9004 7.20041 15.5644 7.2002 15.1504V8.7002H0.75C0.335851 8.7002 0.00010538 8.36432 0 7.9502C0.000131912 7.53609 0.335868 7.2002 0.75 7.2002H7.2002V0.75C7.20033 0.335899 7.53606 0 7.9502 0Z" fill="#6B778C"/>
</svg>
