<svg width="14" height="14" viewBox="0 0 14 14" fill="none" xmlns="http://www.w3.org/2000/svg">
<path d="M5.72754 0C8.89082 0 11.455 2.56428 11.4551 5.72754C11.455 7.05433 11.0025 8.2751 10.2451 9.24609L13.2744 12.2139C13.5699 12.5036 13.5755 12.9786 13.2861 13.2744C12.9965 13.5698 12.5214 13.5753 12.2256 13.2861L9.17676 10.2998C8.21729 11.0247 7.0227 11.4551 5.72754 11.4551C2.56445 11.455 0.000263865 8.8906 0 5.72754C0.000125497 2.56436 2.56436 0.000125505 5.72754 0ZM5.72754 1.5C3.39279 1.50013 1.50013 3.39279 1.5 5.72754C1.50026 8.06217 3.39287 9.95495 5.72754 9.95508C8.06231 9.95508 9.95481 8.06225 9.95508 5.72754C9.95495 3.39271 8.0624 1.5 5.72754 1.5Z" fill="currentColor"/>
</svg>
