<svg viewBox="0 0 20 20" fill="none" xmlns="http://www.w3.org/2000/svg">
<path fill-rule="evenodd" clip-rule="evenodd" d="M11.4263 2.06627C10.9988 0.311243 8.50121 0.311243 8.0737 2.06627C8.00987 2.32999 7.88468 2.57492 7.70831 2.78112C7.53194 2.98732 7.30938 3.14897 7.05874 3.25291C6.8081 3.35684 6.53646 3.40014 6.26592 3.37927C5.99538 3.35839 5.7336 3.27394 5.50187 3.13279C3.95832 2.19227 2.19201 3.95855 3.13254 5.50207C3.74006 6.49884 3.20117 7.79936 2.06713 8.07499C0.310955 8.50137 0.310955 11 2.06713 11.4253C2.33093 11.4892 2.5759 11.6145 2.78211 11.791C2.98831 11.9675 3.14991 12.1902 3.25375 12.441C3.3576 12.6918 3.40074 12.9635 3.37968 13.2341C3.35862 13.5047 3.27394 13.7665 3.13254 13.9982C2.19201 15.5417 3.95832 17.308 5.50187 16.3675C5.73356 16.2261 5.99536 16.1414 6.26597 16.1204C6.53658 16.0993 6.80834 16.1424 7.05912 16.2463C7.3099 16.3501 7.5326 16.5117 7.70911 16.7179C7.88561 16.9241 8.01091 17.1691 8.07482 17.4329C8.50121 19.189 10.9999 19.189 11.4252 17.4329C11.4893 17.1692 11.6147 16.9244 11.7913 16.7184C11.9678 16.5123 12.1905 16.3508 12.4412 16.247C12.6919 16.1432 12.9635 16.1 13.2341 16.1209C13.5046 16.1419 13.7664 16.2264 13.9981 16.3675C15.5417 17.308 17.308 15.5417 16.3675 13.9982C16.2263 13.7665 16.1418 13.5047 16.1209 13.2342C16.1 12.9636 16.1432 12.692 16.247 12.4413C16.3508 12.1906 16.5123 11.9679 16.7183 11.7914C16.9244 11.6148 17.1692 11.4894 17.4329 11.4253C19.189 10.9989 19.189 8.50025 17.4329 8.07499C17.1691 8.01108 16.9241 7.88578 16.7179 7.70928C16.5117 7.53278 16.3501 7.31007 16.2462 7.0593C16.1424 6.80853 16.0993 6.53677 16.1203 6.26617C16.1414 5.99556 16.2261 5.73376 16.3675 5.50207C17.308 3.95855 15.5417 2.19227 13.9981 3.13279C13.7664 3.27418 13.5046 3.35886 13.234 3.37992C12.9634 3.40098 12.6917 3.35784 12.4409 3.254C12.1901 3.15016 11.9674 2.98856 11.7909 2.78236C11.6144 2.57616 11.4891 2.33119 11.4252 2.0674L11.4263 2.06627Z" stroke="currentColor" stroke-width="1.5"/>
<path d="M11.75 9.75C11.75 10.8546 10.8546 11.75 9.75 11.75C8.64543 11.75 7.75 10.8546 7.75 9.75C7.75 8.64543 8.64543 7.75 9.75 7.75C10.8546 7.75 11.75 8.64543 11.75 9.75Z" stroke="currentColor" stroke-width="1.5"/>
</svg>
