<svg  viewBox="0 0 21 22" fill="none" xmlns="http://www.w3.org/2000/svg">
<path d="M9.78516 1.69434C10.1992 1.69434 10.535 2.03029 10.5352 2.44434V10.7295H18.8203C19.2344 10.7295 19.5701 11.0655 19.5703 11.4795C19.5703 16.8838 15.1894 21.2646 9.78516 21.2646C4.38095 21.2646 0 16.8837 0 11.4795C0.0002546 6.07549 4.38111 1.69441 9.78516 1.69434ZM9.03516 3.22949C4.81106 3.60865 1.50024 7.15676 1.5 11.4795C1.5 16.0553 5.20938 19.7646 9.78516 19.7646C14.1082 19.7646 17.6561 16.4539 18.0352 12.2295H9.78516C9.58629 12.2295 9.3955 12.1504 9.25488 12.0098C9.11442 11.8691 9.03516 11.6783 9.03516 11.4795V3.22949ZM13.7383 0C17.583 2.57701e-05 20.7 3.11722 20.7002 6.96191V7.43945C20.7002 7.8536 20.3643 8.18935 19.9502 8.18945H13.7383C13.3241 8.18945 12.9883 7.85367 12.9883 7.43945V0.75C12.9885 0.335955 13.3242 0 13.7383 0ZM14.4883 6.68945H19.1934C19.0636 4.0511 17.0617 1.90524 14.4883 1.55176V6.68945Z" fill="currentColor"/>
</svg>
