
<svg  viewBox="0 0 24 24" fill="none" xmlns="http://www.w3.org/2000/svg">
<path d="M10.9992 14.1426H12.8109C14.5861 14.1426 16.0252 15.5818 16.025 17.3569L16.0247 20.5707M21.599 20.5709L21.5993 17.3571C21.5995 15.5819 20.1604 14.1428 18.3852 14.1428M15.4056 4.06048C16.1949 4.64612 16.7064 5.58498 16.7064 6.64331C16.7064 7.70164 16.1949 8.64049 15.4056 9.22613M12.4931 6.64313C12.4931 8.41821 11.0541 9.85719 9.27903 9.85719C7.50396 9.85719 6.06497 8.41821 6.06497 6.64313C6.06497 4.86806 7.50396 3.42908 9.27903 3.42908C11.0541 3.42908 12.4931 4.86806 12.4931 6.64313ZM3.49925 12.4569H6.57612C7.6807 12.4569 8.57614 13.3524 8.57612 14.457L8.57603 19.4569C8.57602 20.0092 8.16276 20.4569 7.65297 20.4569L3.49921 20.4569C2.98942 20.4569 2.57615 20.0092 2.57616 19.4569L2.57619 13.4569C2.57619 12.9046 2.98946 12.4569 3.49925 12.4569Z" stroke="currentColor" stroke-width="1.5" stroke-linecap="round" stroke-linejoin="round"/>
</svg>
