<svg viewBox="0 0 24 24" fill="none" xmlns="http://www.w3.org/2000/svg">
<path d="M20.9969 21.2L20.9965 17.5996C20.9963 15.6115 19.3846 14 17.3965 14H12.597M8.99695 5.6C8.99695 7.58822 10.6087 9.2 12.597 9.2C14.5852 9.2 16.1969 7.58822 16.1969 5.6C16.1969 3.61177 14.5852 2 12.597 2C10.6087 2 8.99695 3.61177 8.99695 5.6ZM7.87315 14.2774C7.9434 14.2848 8.06327 14.2987 8.1242 14.3225C8.31199 14.3954 8.64694 15.0988 8.81042 15.2916C9.69543 15.9217 10.2365 14.7338 10.9806 16.3973C11.1448 16.9839 10.0673 17.5163 10.5461 18.0967C10.6953 18.373 11.0356 18.7287 10.9969 19.0383C10.975 19.2157 10.5461 19.8875 10.3757 19.975C9.98243 20.1768 9.13672 19.8687 8.83706 20.1845C8.64694 20.3851 8.34927 21.0829 8.14517 21.1793C7.94107 21.2757 7.11267 21.2701 6.89925 21.2C6.68582 21.1295 6.36119 20.424 6.18971 20.2219C5.84543 19.8158 4.98008 20.2321 4.56921 19.9339C3.73982 18.9882 3.94924 18.911 4.53259 17.9533C4.76765 17.4193 3.93959 16.9981 4.00352 16.4746C4.02549 16.2972 4.45434 15.6254 4.62448 15.5379C5.0177 15.3361 5.86342 15.6442 6.16308 15.3284C6.79803 14.4411 6.55597 14.1605 7.87315 14.2774Z" stroke="currentColor" stroke-width="1.5" stroke-linecap="round" stroke-linejoin="round"/>
</svg>
