
<svg  viewBox="0 0 24 24" fill="none" xmlns="http://www.w3.org/2000/svg">
<path d="M12.5002 14.4H16.8001C18.7884 14.4 20.4002 16.012 20.4001 18.0003L20.3997 21.6M15.6004 6.00002C15.6004 7.98825 13.9886 9.60002 12.0004 9.60002C10.0122 9.60002 8.40039 7.98825 8.40039 6.00002C8.40039 4.0118 10.0122 2.40002 12.0004 2.40002C13.9886 2.40002 15.6004 4.0118 15.6004 6.00002Z" stroke="currentColor" stroke-width="1.5" stroke-linecap="round" stroke-linejoin="round"/>
<path d="M7.99996 13H4.92309C4.4133 13 4.00004 13.4477 4.00004 14L4 20C4 20.5523 4.41326 21 4.92305 21L9.07682 21C9.5866 21 9.99987 20.5523 9.99988 20L9.99997 15C9.99998 13.8955 9.10455 13 7.99996 13Z" stroke="currentColor" stroke-width="1.5" stroke-linecap="round" stroke-linejoin="round"/>
</svg>
